<svg xmlns="http://www.w3.org/2000/svg" xmlns:xlink="http://www.w3.org/1999/xlink" version="1.1" width="572" height="402" style="enable-background:new 0 0 198.373 198.373;" xml:space="preserve"><rect id="backgroundrect" width="100%" height="100%" x="0" y="0" fill="none" stroke="none" style="" class="selected"/>
















<g class="currentLayer" style=""><title>Layer 1</title><g id="svg_1" class="" transform="">
	<g id="svg_2" transform="">
		<ellipse cx="57.355735778808594" cy="30.48200035095215" rx="13.553000450134277" ry="13.375" id="svg_3" transform=""/>
		<path d="M37.71668183803558,45.9010009765625 c-3.3420000076293945,0 -5.720999717712402,2.634000062942505 -5.720999717712402,5.973999977111816 v11.782999992370605 v36.12900161743164 c0,2.6700000762939453 1.8589999675750732,4.834000110626221 4.5269999504089355,4.834000110626221 c2.117000102996826,0 3.4079999923706055,-0.875 4.26200008392334,-2.434000015258789 v67.66999816894531 c0,4.004000186920166 3.259999990463257,7.248000144958496 7.263999938964844,7.248000144958496 s7.263999938964844,-3.24399995803833 7.263999938964844,-7.248000144958496 V115.23999786376953 h4.0269999504089355 v54.617000579833984 c0,4.004000186920166 3.26200008392334,7.248000144958496 7.263999938964844,7.248000144958496 c4.005000114440918,0 7.264999866485596,-3.24399995803833 7.264999866485596,-7.248000144958496 v-67.66999816894531 c0.8540002107620239,1.4530000686645508 2.3420000076293945,2.434000015258789 4.135000228881836,2.434000015258789 c2.6710000038146973,0 4.7769999504089355,-2.1640000343322754 4.7769999504089355,-4.834000110626221 V51.874000549316406 c0,-3.5920000076293945 -2.687000036239624,-5.973999977111816 -5.945000171661377,-5.973999977111816 L37.71668183803558,45.9010009765625 L37.71668183803558,45.9010009765625 z" id="svg_4" transform=""/>
		<path d="M90.0475343465805,6.784999847412109 C87.38952958583832,2.562000036239624 82.74853074550629,0 77.75853288173676,0 h-41.2599983215332 c-4.980000019073486,0 -9.61299991607666,2.552000045776367 -12.27400016784668,6.76200008392334 L2.2477601766586304,41.52799987792969 c-0.9819999933242798,1.5550000667572021 -1.503999948501587,3.3559999465942383 -1.503999948501587,5.195000171661377 v44.89799880981445 c0,1 0.15400001406669617,1.9930000305175781 0.4570000171661377,2.946000099182129 l29.777999877929688,93.68299865722656 c1.9160000085830688,6.0269999504089355 7.513999938964844,10.123000144958496 13.83899974822998,10.123000144958496 h24.6299991607666 c6.329999923706055,0 11.930999755859375,-4.1020002365112305 13.843000411987305,-10.13700008392334 l29.676000595092773,-93.6729965209961 c0.3009999990463257,-0.9500002264976501 0.453000009059906,-1.940000057220459 0.453000009059906,-2.937000274658203 V46.7140007019043 c0,-1.8330001831054688 -0.5189999938011169,-3.628999948501587 -1.49399995803833,-5.179999828338623 L90.0475343465805,6.784999847412109 zM102.06553971767426,90.13099670410156 c0,0.8249997496604919 -0.12700000405311584,1.6449999809265137 -0.37700000405311584,2.430999994277954 l-28.128999710083008,88.83399963378906 c-1.0609999895095825,3.3480000495910645 -4.165999889373779,5.623000144958496 -7.677999973297119,5.623000144958496 H48.38761842250824 c-3.507999897003174,0 -6.611999988555908,-2.2709999084472656 -7.675000190734863,-5.614999771118164 L12.474771857261658,92.56700134277344 c-0.25,-0.7889997959136963 -0.3779999911785126,-1.6119999885559082 -0.3779999911785126,-2.439000129699707 V49.50899887084961 c0,-1.5249998569488525 0.43299999833106995,-3.0179998874664307 1.2480000257492065,-4.306000232696533 l19.047000885009766,-30.101999282836914 c1.4769999980926514,-2.3329999446868896 4.045000076293945,-3.746999979019165 6.805999755859375,-3.746999979019165 h35.86899948120117 c2.7680001258850098,0 5.341000080108643,1.4210000038146973 6.815000057220459,3.76200008392334 l18.944000244140625,30.091999053955078 c0.8100000023841858,1.284999966621399 1.2380000352859497,2.7719998359680176 1.2380000352859497,4.290999889373779 L102.06553971767426,90.13099670410156 L102.06553971767426,90.13099670410156 z" id="svg_5" transform=""/>
	</g>
</g><g class="" id="svg_24" transform="">
	<g id="svg_30" transform="">
		<ellipse cx="57.35573589801788" cy="233.5300054848194" rx="13.553000450134277" ry="13.375" id="svg_3" transform=""/>
		<path d="M37.71662080287933,248.94903564453125 c-3.3420000076293945,0 -5.720999717712402,2.634000062942505 -5.720999717712402,5.973999977111816 v11.782999992370605 v36.12900161743164 c0,2.6700000762939453 1.8589999675750732,4.834000110626221 4.5269999504089355,4.834000110626221 c2.117000102996826,0 3.4079999923706055,-0.875 4.26200008392334,-2.434000015258789 v67.66999816894531 c0,4.004000186920166 3.259999990463257,7.248000144958496 7.263999938964844,7.248000144958496 s7.263999938964844,-3.24399995803833 7.263999938964844,-7.248000144958496 V318.2880859375 h4.0269999504089355 v54.617000579833984 c0,4.004000186920166 3.26200008392334,7.248000144958496 7.263999938964844,7.248000144958496 c4.005000114440918,0 7.264999866485596,-3.24399995803833 7.264999866485596,-7.248000144958496 v-67.66999816894531 c0.8540002107620239,1.4530000686645508 2.3420000076293945,2.434000015258789 4.135000228881836,2.434000015258789 c2.6710000038146973,0 4.7769999504089355,-2.1640000343322754 4.7769999504089355,-4.834000110626221 V254.92205810546875 c0,-3.5920000076293945 -2.687000036239624,-5.973999977111816 -5.945000171661377,-5.973999977111816 L37.71662080287933,248.94903564453125 L37.71662080287933,248.94903564453125 z" id="svg_4" transform=""/>
		<path d="M90.04747331142426,209.8329620361328 C87.38946855068207,205.60995483398438 82.7484620809555,203.04795837402344 77.7584718465805,203.04795837402344 h-41.2599983215332 c-4.980000019073486,0 -9.61299991607666,2.552000045776367 -12.27400016784668,6.76200008392334 L2.2477720975875854,244.5760040283203 c-0.9819999933242798,1.5550000667572021 -1.503999948501587,3.3559999465942383 -1.503999948501587,5.195000171661377 v44.89799880981445 c0,1 0.15400001406669617,1.9930000305175781 0.4570000171661377,2.946000099182129 l29.777999877929688,93.68299865722656 c1.9160000085830688,6.0269999504089355 7.513999938964844,10.123000144958496 13.83899974822998,10.123000144958496 h24.6299991607666 c6.329999923706055,0 11.930999755859375,-4.1020002365112305 13.843000411987305,-10.13700008392334 l29.676000595092773,-93.6729965209961 c0.3009999990463257,-0.9500002264976501 0.453000009059906,-1.940000057220459 0.453000009059906,-2.937000274658203 V249.76202392578125 c0,-1.8330001831054688 -0.5189999938011169,-3.628999948501587 -1.49399995803833,-5.179999828338623 L90.04747331142426,209.8329620361328 zM102.065478682518,293.1790771484375 c0,0.8249997496604919 -0.12700000405311584,1.6449999809265137 -0.37700000405311584,2.430999994277954 l-28.128999710083008,88.83399963378906 c-1.0609999895095825,3.3480000495910645 -4.165999889373779,5.623000144958496 -7.677999973297119,5.623000144958496 H48.38755738735199 c-3.507999897003174,0 -6.611999988555908,-2.2709999084472656 -7.675000190734863,-5.614999771118164 L12.474768042564392,295.61505126953125 c-0.25,-0.7889997959136963 -0.3779999911785126,-1.6119999885559082 -0.3779999911785126,-2.439000129699707 V252.55706787109375 c0,-1.5249998569488525 0.43299999833106995,-3.0179998874664307 1.2480000257492065,-4.306000232696533 l19.047000885009766,-30.101999282836914 c1.4769999980926514,-2.3329999446868896 4.045000076293945,-3.746999979019165 6.805999755859375,-3.746999979019165 h35.86899948120117 c2.7680001258850098,0 5.341000080108643,1.4210000038146973 6.815000057220459,3.76200008392334 l18.944000244140625,30.091999053955078 c0.8100000023841858,1.284999966621399 1.2380000352859497,2.7719998359680176 1.2380000352859497,4.290999889373779 L102.065478682518,293.1790771484375 L102.065478682518,293.1790771484375 z" id="svg_5" transform=""/>
	</g>
</g><g class="" id="svg_34" transform="">
	<g id="svg_38" transform="">
		<ellipse cx="285.51363384723663" cy="233.5300054848194" rx="13.553000450134277" ry="13.375" id="svg_3" transform=""/>
		<path d="M265.8743623495102,248.94903564453125 c-3.3420000076293945,0 -5.720999717712402,2.634000062942505 -5.720999717712402,5.973999977111816 v11.782999992370605 v36.12900161743164 c0,2.6700000762939453 1.8589999675750732,4.834000110626221 4.5269999504089355,4.834000110626221 c2.117000102996826,0 3.4079999923706055,-0.875 4.26200008392334,-2.434000015258789 v67.66999816894531 c0,4.004000186920166 3.259999990463257,7.248000144958496 7.263999938964844,7.248000144958496 s7.263999938964844,-3.24399995803833 7.263999938964844,-7.248000144958496 V318.2880859375 h4.0269999504089355 v54.617000579833984 c0,4.004000186920166 3.26200008392334,7.248000144958496 7.263999938964844,7.248000144958496 c4.005000114440918,0 7.264999866485596,-3.24399995803833 7.264999866485596,-7.248000144958496 v-67.66999816894531 c0.8540002107620239,1.4530000686645508 2.3420000076293945,2.434000015258789 4.135000228881836,2.434000015258789 c2.6710000038146973,0 4.7769999504089355,-2.1640000343322754 4.7769999504089355,-4.834000110626221 V254.92205810546875 c0,-3.5920000076293945 -2.687000036239624,-5.973999977111816 -5.945000171661377,-5.973999977111816 L265.8743623495102,248.94903564453125 L265.8743623495102,248.94903564453125 z" id="svg_4" transform=""/>
		<path d="M318.20535600185394,209.83294677734375 C315.5473664999008,205.60995483398438 310.9063447713852,203.04795837402344 305.9163545370102,203.04795837402344 h-41.2599983215332 c-4.980000019073486,0 -9.61299991607666,2.552000045776367 -12.27400016784668,6.76200008392334 L230.40533769130707,244.5760040283203 c-0.9819999933242798,1.5550000667572021 -1.503999948501587,3.3559999465942383 -1.503999948501587,5.195000171661377 v44.89799880981445 c0,1 0.15400001406669617,1.9930000305175781 0.4570000171661377,2.946000099182129 l29.777999877929688,93.68299865722656 c1.9160000085830688,6.0269999504089355 7.513999938964844,10.123000144958496 13.83899974822998,10.123000144958496 h24.6299991607666 c6.329999923706055,0 11.930999755859375,-4.1020002365112305 13.843000411987305,-10.13700008392334 l29.676000595092773,-93.6729965209961 c0.3009999990463257,-0.9500002264976501 0.453000009059906,-1.940000057220459 0.453000009059906,-2.937000274658203 V249.76202392578125 c0,-1.8330001831054688 -0.5189999938011169,-3.628999948501587 -1.49399995803833,-5.179999828338623 L318.20535600185394,209.83294677734375 zM330.2233613729477,293.1790771484375 c0,0.8249997496604919 -0.12700000405311584,1.6449999809265137 -0.37700000405311584,2.430999994277954 l-28.128999710083008,88.83399963378906 c-1.0609999895095825,3.3480000495910645 -4.165999889373779,5.623000144958496 -7.677999973297119,5.623000144958496 H276.54535233974457 c-3.507999897003174,0 -6.611999988555908,-2.2709999084472656 -7.675000190734863,-5.614999771118164 L240.63235795497894,295.61505126953125 c-0.25,-0.7889997959136963 -0.3779999911785126,-1.6119999885559082 -0.3779999911785126,-2.439000129699707 V252.55706787109375 c0,-1.5249998569488525 0.43299999833106995,-3.0179998874664307 1.2480000257492065,-4.306000232696533 l19.047000885009766,-30.101999282836914 c1.4769999980926514,-2.3329999446868896 4.045000076293945,-3.746999979019165 6.805999755859375,-3.746999979019165 h35.86899948120117 c2.7680001258850098,0 5.341000080108643,1.4210000038146973 6.815000057220459,3.76200008392334 l18.944000244140625,30.091999053955078 c0.8100000023841858,1.284999966621399 1.2380000352859497,2.7719998359680176 1.2380000352859497,4.290999889373779 L330.2233613729477,293.1790771484375 L330.2233613729477,293.1790771484375 z" id="svg_5" transform=""/>
	</g>
</g><g class="" id="svg_42" transform="">
	<g id="svg_46" transform="">
		<ellipse cx="399.724174618721" cy="233.5300054848194" rx="13.553000450134277" ry="13.375" id="svg_3" transform=""/>
		<path d="M380.08487260341644,248.94903564453125 c-3.3420000076293945,0 -5.720999717712402,2.634000062942505 -5.720999717712402,5.973999977111816 v11.782999992370605 v36.12900161743164 c0,2.6700000762939453 1.8589999675750732,4.834000110626221 4.5269999504089355,4.834000110626221 c2.117000102996826,0 3.4079999923706055,-0.875 4.26200008392334,-2.434000015258789 v67.66999816894531 c0,4.004000186920166 3.259999990463257,7.248000144958496 7.263999938964844,7.248000144958496 s7.263999938964844,-3.24399995803833 7.263999938964844,-7.248000144958496 V318.2880859375 h4.0269999504089355 v54.617000579833984 c0,4.004000186920166 3.26200008392334,7.248000144958496 7.263999938964844,7.248000144958496 c4.005000114440918,0 7.264999866485596,-3.24399995803833 7.264999866485596,-7.248000144958496 v-67.66999816894531 c0.8540002107620239,1.4530000686645508 2.3420000076293945,2.434000015258789 4.135000228881836,2.434000015258789 c2.6710000038146973,0 4.7769999504089355,-2.1640000343322754 4.7769999504089355,-4.834000110626221 V254.92205810546875 c0,-3.5920000076293945 -2.687000036239624,-5.973999977111816 -5.945000171661377,-5.973999977111816 L380.08487260341644,248.94903564453125 L380.08487260341644,248.94903564453125 z" id="svg_4" transform=""/>
		<path d="M432.4158967733383,209.83294677734375 C429.7579072713852,205.60995483398438 425.1169160604477,203.04795837402344 420.12686479091644,203.04795837402344 h-41.2599983215332 c-4.980000019073486,0 -9.61299991607666,2.552000045776367 -12.27400016784668,6.76200008392334 L344.61587846279144,244.5760040283203 c-0.9819999933242798,1.5550000667572021 -1.503999948501587,3.3559999465942383 -1.503999948501587,5.195000171661377 v44.89799880981445 c0,1 0.15400001406669617,1.9930000305175781 0.4570000171661377,2.946000099182129 l29.777999877929688,93.68299865722656 c1.9160000085830688,6.0269999504089355 7.513999938964844,10.123000144958496 13.83899974822998,10.123000144958496 h24.6299991607666 c6.329999923706055,0 11.930999755859375,-4.1020002365112305 13.843000411987305,-10.13700008392334 l29.676000595092773,-93.6729965209961 c0.3009999990463257,-0.9500002264976501 0.453000009059906,-1.940000057220459 0.453000009059906,-2.937000274658203 V249.76202392578125 c0,-1.8330001831054688 -0.5189999938011169,-3.628999948501587 -1.49399995803833,-5.179999828338623 L432.4158967733383,209.83294677734375 zM444.43387162685394,293.1791076660156 c0,0.8249997496604919 -0.12700000405311584,1.6449999809265137 -0.37700000405311584,2.430999994277954 l-28.128999710083008,88.83399963378906 c-1.0609999895095825,3.3480000495910645 -4.165999889373779,5.623000144958496 -7.677999973297119,5.623000144958496 H390.75589311122894 c-3.507999897003174,0 -6.611999988555908,-2.2709999084472656 -7.675000190734863,-5.614999771118164 L354.8428682088852,295.61505126953125 c-0.25,-0.7889997959136963 -0.3779999911785126,-1.6119999885559082 -0.3779999911785126,-2.439000129699707 V252.55706787109375 c0,-1.5249998569488525 0.43299999833106995,-3.0179998874664307 1.2480000257492065,-4.306000232696533 l19.047000885009766,-30.101999282836914 c1.4769999980926514,-2.3329999446868896 4.045000076293945,-3.746999979019165 6.805999755859375,-3.746999979019165 h35.86899948120117 c2.7680001258850098,0 5.341000080108643,1.4210000038146973 6.815000057220459,3.76200008392334 l18.944000244140625,30.091999053955078 c0.8100000023841858,1.284999966621399 1.2380000352859497,2.7719998359680176 1.2380000352859497,4.290999889373779 L444.43387162685394,293.1791076660156 L444.43387162685394,293.1791076660156 z" id="svg_5" transform=""/>
	</g>
</g><g class="" id="svg_50" transform="">
	<g id="svg_54" transform="">
		<ellipse cx="515.1189194917679" cy="233.5300054848194" rx="13.553000450134277" ry="13.375" id="svg_3" transform=""/>
		<path d="M495.4796174764633,248.94903564453125 c-3.3420000076293945,0 -5.720999717712402,2.634000062942505 -5.720999717712402,5.973999977111816 v11.782999992370605 v36.12900161743164 c0,2.6700000762939453 1.8589999675750732,4.834000110626221 4.5269999504089355,4.834000110626221 c2.117000102996826,0 3.4079999923706055,-0.875 4.26200008392334,-2.434000015258789 v67.66999816894531 c0,4.004000186920166 3.259999990463257,7.248000144958496 7.263999938964844,7.248000144958496 s7.263999938964844,-3.24399995803833 7.263999938964844,-7.248000144958496 V318.2880859375 h4.0269999504089355 v54.617000579833984 c0,4.004000186920166 3.26200008392334,7.248000144958496 7.263999938964844,7.248000144958496 c4.005000114440918,0 7.264999866485596,-3.24399995803833 7.264999866485596,-7.248000144958496 v-67.66999816894531 c0.8540002107620239,1.4530000686645508 2.3420000076293945,2.434000015258789 4.135000228881836,2.434000015258789 c2.6710000038146973,0 4.7769999504089355,-2.1640000343322754 4.7769999504089355,-4.834000110626221 V254.92205810546875 c0,-3.5920000076293945 -2.687000036239624,-5.973999977111816 -5.945000171661377,-5.973999977111816 L495.4796174764633,248.94903564453125 L495.4796174764633,248.94903564453125 z" id="svg_4" transform=""/>
		<path d="M547.8106111288071,209.8329620361328 C545.1526521444321,205.60995483398438 540.5116609334946,203.04795837402344 535.5216096639633,203.04795837402344 h-41.2599983215332 c-4.980000019073486,0 -9.61299991607666,2.552000045776367 -12.27400016784668,6.76200008392334 L460.0106233358383,244.5760040283203 c-0.9819999933242798,1.5550000667572021 -1.503999948501587,3.3559999465942383 -1.503999948501587,5.195000171661377 v44.89799880981445 c0,1 0.15400001406669617,1.9930000305175781 0.4570000171661377,2.946000099182129 l29.777999877929688,93.68299865722656 c1.9160000085830688,6.0269999504089355 7.513999938964844,10.123000144958496 13.83899974822998,10.123000144958496 h24.6299991607666 c6.329999923706055,0 11.930999755859375,-4.1020002365112305 13.843000411987305,-10.13700008392334 l29.676000595092773,-93.6729965209961 c0.3009999990463257,-0.9500002264976501 0.453000009059906,-1.940000057220459 0.453000009059906,-2.937000274658203 V249.76202392578125 c0,-1.8330001831054688 -0.5189999938011169,-3.628999948501587 -1.49399995803833,-5.179999828338623 L547.8106111288071,209.8329620361328 zM559.8286164999008,293.1791076660156 c0,0.8249997496604919 -0.12700000405311584,1.6449999809265137 -0.37700000405311584,2.430999994277954 l-28.128999710083008,88.83399963378906 c-1.0609999895095825,3.3480000495910645 -4.165999889373779,5.623000144958496 -7.677999973297119,5.623000144958496 H506.1506379842758 c-3.507999897003174,0 -6.611999988555908,-2.2709999084472656 -7.675000190734863,-5.614999771118164 L470.23761308193207,295.61505126953125 c-0.25,-0.7889997959136963 -0.3779999911785126,-1.6119999885559082 -0.3779999911785126,-2.439000129699707 V252.55706787109375 c0,-1.5249998569488525 0.43299999833106995,-3.0179998874664307 1.2480000257492065,-4.306000232696533 l19.047000885009766,-30.101999282836914 c1.4769999980926514,-2.3329999446868896 4.045000076293945,-3.746999979019165 6.805999755859375,-3.746999979019165 h35.86899948120117 c2.7680001258850098,0 5.341000080108643,1.4210000038146973 6.815000057220459,3.76200008392334 l18.944000244140625,30.091999053955078 c0.8100000023841858,1.284999966621399 1.2380000352859497,2.7719998359680176 1.2380000352859497,4.290999889373779 L559.8286164999008,293.1791076660156 L559.8286164999008,293.1791076660156 z" id="svg_5" transform=""/>
	</g>
</g><g class="" id="svg_58" transform="">
	<g id="svg_62" transform="">
		<ellipse cx="171.17153179645538" cy="233.5300054848194" rx="13.553000450134277" ry="13.375" id="svg_3" transform=""/>
		<path d="M151.53226029872894,248.94903564453125 c-3.3420000076293945,0 -5.720999717712402,2.634000062942505 -5.720999717712402,5.973999977111816 v11.782999992370605 v36.12900161743164 c0,2.6700000762939453 1.8589999675750732,4.834000110626221 4.5269999504089355,4.834000110626221 c2.117000102996826,0 3.4079999923706055,-0.875 4.26200008392334,-2.434000015258789 v67.66999816894531 c0,4.004000186920166 3.259999990463257,7.248000144958496 7.263999938964844,7.248000144958496 s7.263999938964844,-3.24399995803833 7.263999938964844,-7.248000144958496 V318.2880859375 h4.0269999504089355 v54.617000579833984 c0,4.004000186920166 3.26200008392334,7.248000144958496 7.263999938964844,7.248000144958496 c4.005000114440918,0 7.264999866485596,-3.24399995803833 7.264999866485596,-7.248000144958496 v-67.66999816894531 c0.8540002107620239,1.4530000686645508 2.3420000076293945,2.434000015258789 4.135000228881836,2.434000015258789 c2.6710000038146973,0 4.7769999504089355,-2.1640000343322754 4.7769999504089355,-4.834000110626221 V254.92205810546875 c0,-3.5920000076293945 -2.687000036239624,-5.973999977111816 -5.945000171661377,-5.973999977111816 L151.53226029872894,248.94903564453125 L151.53226029872894,248.94903564453125 z" id="svg_4" transform=""/>
		<path d="M203.8632539510727,209.8329620361328 C201.20526444911957,205.60995483398438 196.564257979393,203.04795837402344 191.57425248622894,203.04795837402344 h-41.2599983215332 c-4.980000019073486,0 -9.61299991607666,2.552000045776367 -12.27400016784668,6.76200008392334 L116.06325089931488,244.5760040283203 c-0.9819999933242798,1.5550000667572021 -1.503999948501587,3.3559999465942383 -1.503999948501587,5.195000171661377 v44.89799880981445 c0,1 0.15400001406669617,1.9930000305175781 0.4570000171661377,2.946000099182129 l29.777999877929688,93.68299865722656 c1.9160000085830688,6.0269999504089355 7.513999938964844,10.123000144958496 13.83899974822998,10.123000144958496 h24.6299991607666 c6.329999923706055,0 11.930999755859375,-4.1020002365112305 13.843000411987305,-10.13700008392334 l29.676000595092773,-93.6729965209961 c0.3009999990463257,-0.9500002264976501 0.453000009059906,-1.940000057220459 0.453000009059906,-2.937000274658203 V249.76202392578125 c0,-1.8330001831054688 -0.5189999938011169,-3.628999948501587 -1.49399995803833,-5.179999828338623 L203.8632539510727,209.8329620361328 zM215.88125932216644,293.1790771484375 c0,0.8249997496604919 -0.12700000405311584,1.6449999809265137 -0.37700000405311584,2.430999994277954 l-28.128999710083008,88.83399963378906 c-1.0609999895095825,3.3480000495910645 -4.165999889373779,5.623000144958496 -7.677999973297119,5.623000144958496 H162.20326554775238 c-3.507999897003174,0 -6.611999988555908,-2.2709999084472656 -7.675000190734863,-5.614999771118164 L126.29025590419769,295.61505126953125 c-0.25,-0.7889997959136963 -0.3779999911785126,-1.6119999885559082 -0.3779999911785126,-2.439000129699707 V252.55706787109375 c0,-1.5249998569488525 0.43299999833106995,-3.0179998874664307 1.2480000257492065,-4.306000232696533 l19.047000885009766,-30.101999282836914 c1.4769999980926514,-2.3329999446868896 4.045000076293945,-3.746999979019165 6.805999755859375,-3.746999979019165 h35.86899948120117 c2.7680001258850098,0 5.341000080108643,1.4210000038146973 6.815000057220459,3.76200008392334 l18.944000244140625,30.091999053955078 c0.8100000023841858,1.284999966621399 1.2380000352859497,2.7719998359680176 1.2380000352859497,4.290999889373779 L215.88125932216644,293.1790771484375 L215.88125932216644,293.1790771484375 z" id="svg_5" transform=""/>
	</g>
</g><g class="" id="svg_55" transform="">
	<g id="svg_57" transform="">
		<ellipse cx="285.51363372802734" cy="30.48200035095215" rx="13.553000450134277" ry="13.375" id="svg_3" transform=""/>
		<path d="M265.87442338466644,45.9010009765625 c-3.3420000076293945,0 -5.720999717712402,2.634000062942505 -5.720999717712402,5.973999977111816 v11.782999992370605 v36.12900161743164 c0,2.6700000762939453 1.8589999675750732,4.834000110626221 4.5269999504089355,4.834000110626221 c2.117000102996826,0 3.4079999923706055,-0.875 4.26200008392334,-2.434000015258789 v67.66999816894531 c0,4.004000186920166 3.259999990463257,7.248000144958496 7.263999938964844,7.248000144958496 s7.263999938964844,-3.24399995803833 7.263999938964844,-7.248000144958496 V115.2400131225586 h4.0269999504089355 v54.617000579833984 c0,4.004000186920166 3.26200008392334,7.248000144958496 7.263999938964844,7.248000144958496 c4.005000114440918,0 7.264999866485596,-3.24399995803833 7.264999866485596,-7.248000144958496 v-67.66999816894531 c0.8540002107620239,1.4530000686645508 2.3420000076293945,2.434000015258789 4.135000228881836,2.434000015258789 c2.6710000038146973,0 4.7769999504089355,-2.1640000343322754 4.7769999504089355,-4.834000110626221 V51.874000549316406 c0,-3.5920000076293945 -2.687000036239624,-5.973999977111816 -5.945000171661377,-5.973999977111816 L265.87442338466644,45.9010009765625 L265.87442338466644,45.9010009765625 z" id="svg_4" transform=""/>
		<path d="M318.2054170370102,6.784999370574951 C315.54742753505707,2.5620005130767822 310.90640580654144,0 305.91641557216644,0 h-41.2599983215332 c-4.980000019073486,0 -9.61299991607666,2.552000045776367 -12.27400016784668,6.76200008392334 L230.40539872646332,41.52799987792969 c-0.9819999933242798,1.5550000667572021 -1.503999948501587,3.3559999465942383 -1.503999948501587,5.195000171661377 v44.89799880981445 c0,1 0.15400001406669617,1.9930000305175781 0.4570000171661377,2.946000099182129 l29.777999877929688,93.68299865722656 c1.9160000085830688,6.0269999504089355 7.513999938964844,10.123000144958496 13.83899974822998,10.123000144958496 h24.6299991607666 c6.329999923706055,0 11.930999755859375,-4.1020002365112305 13.843000411987305,-10.13700008392334 l29.676000595092773,-93.6729965209961 c0.3009999990463257,-0.9500002264976501 0.453000009059906,-1.940000057220459 0.453000009059906,-2.937000274658203 V46.71400451660156 c0,-1.8330001831054688 -0.5189999938011169,-3.628999948501587 -1.49399995803833,-5.179999828338623 L318.2054170370102,6.784999370574951 zM330.22342240810394,90.1310043334961 c0,0.8249997496604919 -0.12700000405311584,1.6449999809265137 -0.37700000405311584,2.430999994277954 l-28.128999710083008,88.83399963378906 c-1.0609999895095825,3.3480000495910645 -4.165999889373779,5.623000144958496 -7.677999973297119,5.623000144958496 H276.5454133749008 c-3.507999897003174,0 -6.611999988555908,-2.2709999084472656 -7.675000190734863,-5.614999771118164 L240.6324189901352,92.5670166015625 c-0.25,-0.7889997959136963 -0.3779999911785126,-1.6119999885559082 -0.3779999911785126,-2.439000129699707 V49.508995056152344 c0,-1.5249998569488525 0.43299999833106995,-3.0179998874664307 1.2480000257492065,-4.306000232696533 l19.047000885009766,-30.101999282836914 c1.4769999980926514,-2.3329999446868896 4.045000076293945,-3.746999979019165 6.805999755859375,-3.746999979019165 h35.86899948120117 c2.7680001258850098,0 5.341000080108643,1.4210000038146973 6.815000057220459,3.76200008392334 l18.944000244140625,30.091999053955078 c0.8100000023841858,1.284999966621399 1.2380000352859497,2.7719998359680176 1.2380000352859497,4.290999889373779 L330.22342240810394,90.1310043334961 L330.22342240810394,90.1310043334961 z" id="svg_5" transform=""/>
	</g>
</g><g class="" id="svg_59" transform="">
	<g id="svg_61" transform="">
		<ellipse cx="399.7241744995117" cy="30.48200035095215" rx="13.553000450134277" ry="13.375" id="svg_3" transform=""/>
		<path d="M380.0849336385727,45.900997161865234 c-3.3420000076293945,0 -5.720999717712402,2.634000062942505 -5.720999717712402,5.973999977111816 v11.782999992370605 v36.12900161743164 c0,2.6700000762939453 1.8589999675750732,4.834000110626221 4.5269999504089355,4.834000110626221 c2.117000102996826,0 3.4079999923706055,-0.875 4.26200008392334,-2.434000015258789 v67.66999816894531 c0,4.004000186920166 3.259999990463257,7.248000144958496 7.263999938964844,7.248000144958496 s7.263999938964844,-3.24399995803833 7.263999938964844,-7.248000144958496 V115.24000549316406 h4.0269999504089355 v54.617000579833984 c0,4.004000186920166 3.26200008392334,7.248000144958496 7.263999938964844,7.248000144958496 c4.005000114440918,0 7.264999866485596,-3.24399995803833 7.264999866485596,-7.248000144958496 v-67.66999816894531 c0.8540002107620239,1.4530000686645508 2.3420000076293945,2.434000015258789 4.135000228881836,2.434000015258789 c2.6710000038146973,0 4.7769999504089355,-2.1640000343322754 4.7769999504089355,-4.834000110626221 V51.87400436401367 c0,-3.5920000076293945 -2.687000036239624,-5.973999977111816 -5.945000171661377,-5.973999977111816 L380.0849336385727,45.900997161865234 L380.0849336385727,45.900997161865234 z" id="svg_4" transform=""/>
		<path d="M432.41595780849457,6.784999370574951 C429.75796830654144,2.5620007514953613 425.11697709560394,0 420.1269258260727,0 h-41.2599983215332 c-4.980000019073486,0 -9.61299991607666,2.552000045776367 -12.27400016784668,6.76200008392334 L344.6159394979477,41.52799606323242 c-0.9819999933242798,1.5550000667572021 -1.503999948501587,3.3559999465942383 -1.503999948501587,5.195000171661377 v44.89799880981445 c0,1 0.15400001406669617,1.9930000305175781 0.4570000171661377,2.946000099182129 l29.777999877929688,93.68299865722656 c1.9160000085830688,6.0269999504089355 7.513999938964844,10.123000144958496 13.83899974822998,10.123000144958496 h24.6299991607666 c6.329999923706055,0 11.930999755859375,-4.1020002365112305 13.843000411987305,-10.13700008392334 l29.676000595092773,-93.6729965209961 c0.3009999990463257,-0.9500002264976501 0.453000009059906,-1.940000057220459 0.453000009059906,-2.937000274658203 V46.7140007019043 c0,-1.8330001831054688 -0.5189999938011169,-3.628999948501587 -1.49399995803833,-5.179999828338623 L432.41595780849457,6.784999370574951 zM444.4339326620102,90.13101196289062 c0,0.8249997496604919 -0.12700000405311584,1.6449999809265137 -0.37700000405311584,2.430999994277954 l-28.128999710083008,88.83399963378906 c-1.0609999895095825,3.3480000495910645 -4.165999889373779,5.623000144958496 -7.677999973297119,5.623000144958496 H390.7559541463852 c-3.507999897003174,0 -6.611999988555908,-2.2709999084472656 -7.675000190734863,-5.614999771118164 L354.84292924404144,92.5670166015625 c-0.25,-0.7889997959136963 -0.3779999911785126,-1.6119999885559082 -0.3779999911785126,-2.439000129699707 V49.50899124145508 c0,-1.5249998569488525 0.43299999833106995,-3.0179998874664307 1.2480000257492065,-4.306000232696533 l19.047000885009766,-30.101999282836914 c1.4769999980926514,-2.3329999446868896 4.045000076293945,-3.746999979019165 6.805999755859375,-3.746999979019165 h35.86899948120117 c2.7680001258850098,0 5.341000080108643,1.4210000038146973 6.815000057220459,3.76200008392334 l18.944000244140625,30.091999053955078 c0.8100000023841858,1.284999966621399 1.2380000352859497,2.7719998359680176 1.2380000352859497,4.290999889373779 L444.4339326620102,90.13101196289062 L444.4339326620102,90.13101196289062 z" id="svg_5" transform=""/>
	</g>
</g><g class="" id="svg_22" transform="">
	<g id="svg_26" transform="">
		<ellipse cx="515.1189193725586" cy="30.48200035095215" rx="13.553000450134277" ry="13.375" id="svg_3" transform=""/>
		<path d="M495.47967851161957,45.9010009765625 c-3.3420000076293945,0 -5.720999717712402,2.634000062942505 -5.720999717712402,5.973999977111816 v11.782999992370605 v36.12900161743164 c0,2.6700000762939453 1.8589999675750732,4.834000110626221 4.5269999504089355,4.834000110626221 c2.117000102996826,0 3.4079999923706055,-0.875 4.26200008392334,-2.434000015258789 v67.66999816894531 c0,4.004000186920166 3.259999990463257,7.248000144958496 7.263999938964844,7.248000144958496 s7.263999938964844,-3.24399995803833 7.263999938964844,-7.248000144958496 V115.24000549316406 h4.0269999504089355 v54.617000579833984 c0,4.004000186920166 3.26200008392334,7.248000144958496 7.263999938964844,7.248000144958496 c4.005000114440918,0 7.264999866485596,-3.24399995803833 7.264999866485596,-7.248000144958496 v-67.66999816894531 c0.8540002107620239,1.4530000686645508 2.3420000076293945,2.434000015258789 4.135000228881836,2.434000015258789 c2.6710000038146973,0 4.7769999504089355,-2.1640000343322754 4.7769999504089355,-4.834000110626221 V51.87400817871094 c0,-3.5920000076293945 -2.687000036239624,-5.973999977111816 -5.945000171661377,-5.973999977111816 L495.47967851161957,45.9010009765625 L495.47967851161957,45.9010009765625 z" id="svg_4" transform=""/>
		<path d="M547.8106721639633,6.784999847412109 C545.1527131795883,2.562002182006836 540.5117219686508,0 535.5216706991196,0 h-41.2599983215332 c-4.980000019073486,0 -9.61299991607666,2.552000045776367 -12.27400016784668,6.76200008392334 L460.01068437099457,41.52799987792969 c-0.9819999933242798,1.5550000667572021 -1.503999948501587,3.3559999465942383 -1.503999948501587,5.195000171661377 v44.89799880981445 c0,1 0.15400001406669617,1.9930000305175781 0.4570000171661377,2.946000099182129 l29.777999877929688,93.68299865722656 c1.9160000085830688,6.0269999504089355 7.513999938964844,10.123000144958496 13.83899974822998,10.123000144958496 h24.6299991607666 c6.329999923706055,0 11.930999755859375,-4.1020002365112305 13.843000411987305,-10.13700008392334 l29.676000595092773,-93.6729965209961 c0.3009999990463257,-0.9500002264976501 0.453000009059906,-1.940000057220459 0.453000009059906,-2.937000274658203 V46.71400451660156 c0,-1.8330001831054688 -0.5189999938011169,-3.628999948501587 -1.49399995803833,-5.179999828338623 L547.8106721639633,6.784999847412109 zM559.8286775350571,90.13101196289062 c0,0.8249997496604919 -0.12700000405311584,1.6449999809265137 -0.37700000405311584,2.430999994277954 l-28.128999710083008,88.83399963378906 c-1.0609999895095825,3.3480000495910645 -4.165999889373779,5.623000144958496 -7.677999973297119,5.623000144958496 H506.15069901943207 c-3.507999897003174,0 -6.611999988555908,-2.2709999084472656 -7.675000190734863,-5.614999771118164 L470.2376741170883,92.5670166015625 c-0.25,-0.7889997959136963 -0.3779999911785126,-1.6119999885559082 -0.3779999911785126,-2.439000129699707 V49.508995056152344 c0,-1.5249998569488525 0.43299999833106995,-3.0179998874664307 1.2480000257492065,-4.306000232696533 l19.047000885009766,-30.101999282836914 c1.4769999980926514,-2.3329999446868896 4.045000076293945,-3.746999979019165 6.805999755859375,-3.746999979019165 h35.86899948120117 c2.7680001258850098,0 5.341000080108643,1.4210000038146973 6.815000057220459,3.76200008392334 l18.944000244140625,30.091999053955078 c0.8100000023841858,1.284999966621399 1.2380000352859497,2.7719998359680176 1.2380000352859497,4.290999889373779 L559.8286775350571,90.13101196289062 L559.8286775350571,90.13101196289062 z" id="svg_5" transform=""/>
	</g>
</g><g class="" id="svg_21" transform="">
	<g id="svg_23" transform="">
		<ellipse cx="171.1715316772461" cy="30.48200035095215" rx="13.553000450134277" ry="13.375" id="svg_3" transform=""/>
		<path d="M151.5323213338852,45.9010009765625 c-3.3420000076293945,0 -5.720999717712402,2.634000062942505 -5.720999717712402,5.973999977111816 v11.782999992370605 v36.12900161743164 c0,2.6700000762939453 1.8589999675750732,4.834000110626221 4.5269999504089355,4.834000110626221 c2.117000102996826,0 3.4079999923706055,-0.875 4.26200008392334,-2.434000015258789 v67.66999816894531 c0,4.004000186920166 3.259999990463257,7.248000144958496 7.263999938964844,7.248000144958496 s7.263999938964844,-3.24399995803833 7.263999938964844,-7.248000144958496 V115.239990234375 h4.0269999504089355 v54.617000579833984 c0,4.004000186920166 3.26200008392334,7.248000144958496 7.263999938964844,7.248000144958496 c4.005000114440918,0 7.264999866485596,-3.24399995803833 7.264999866485596,-7.248000144958496 v-67.66999816894531 c0.8540002107620239,1.4530000686645508 2.3420000076293945,2.434000015258789 4.135000228881836,2.434000015258789 c2.6710000038146973,0 4.7769999504089355,-2.1640000343322754 4.7769999504089355,-4.834000110626221 V51.87400436401367 c0,-3.5920000076293945 -2.687000036239624,-5.973999977111816 -5.945000171661377,-5.973999977111816 L151.5323213338852,45.9010009765625 L151.5323213338852,45.9010009765625 z" id="svg_4" transform=""/>
		<path d="M203.86331498622894,6.785000801086426 C201.20532548427582,2.562000274658203 196.56431901454926,0 191.5743135213852,0 h-41.2599983215332 c-4.980000019073486,0 -9.61299991607666,2.552000045776367 -12.27400016784668,6.76200008392334 L116.06331193447113,41.52799987792969 c-0.9819999933242798,1.5550000667572021 -1.503999948501587,3.3559999465942383 -1.503999948501587,5.195000171661377 v44.89799880981445 c0,1 0.15400001406669617,1.9930000305175781 0.4570000171661377,2.946000099182129 l29.777999877929688,93.68299865722656 c1.9160000085830688,6.0269999504089355 7.513999938964844,10.123000144958496 13.83899974822998,10.123000144958496 h24.6299991607666 c6.329999923706055,0 11.930999755859375,-4.1020002365112305 13.843000411987305,-10.13700008392334 l29.676000595092773,-93.6729965209961 c0.3009999990463257,-0.9500002264976501 0.453000009059906,-1.940000057220459 0.453000009059906,-2.937000274658203 V46.7140007019043 c0,-1.8330001831054688 -0.5189999938011169,-3.628999948501587 -1.49399995803833,-5.179999828338623 L203.86331498622894,6.785000801086426 zM215.8813203573227,90.13099670410156 c0,0.8249997496604919 -0.12700000405311584,1.6449999809265137 -0.37700000405311584,2.430999994277954 l-28.128999710083008,88.83399963378906 c-1.0609999895095825,3.3480000495910645 -4.165999889373779,5.623000144958496 -7.677999973297119,5.623000144958496 H162.20332658290863 c-3.507999897003174,0 -6.611999988555908,-2.2709999084472656 -7.675000190734863,-5.614999771118164 L126.29031693935394,92.56700134277344 c-0.25,-0.7889997959136963 -0.3779999911785126,-1.6119999885559082 -0.3779999911785126,-2.439000129699707 V49.50899887084961 c0,-1.5249998569488525 0.43299999833106995,-3.0179998874664307 1.2480000257492065,-4.306000232696533 l19.047000885009766,-30.101999282836914 c1.4769999980926514,-2.3329999446868896 4.045000076293945,-3.746999979019165 6.805999755859375,-3.746999979019165 h35.86899948120117 c2.7680001258850098,0 5.341000080108643,1.4210000038146973 6.815000057220459,3.76200008392334 l18.944000244140625,30.091999053955078 c0.8100000023841858,1.284999966621399 1.2380000352859497,2.7719998359680176 1.2380000352859497,4.290999889373779 L215.8813203573227,90.13099670410156 L215.8813203573227,90.13099670410156 z" id="svg_5" transform=""/>
	</g>
</g><g class="" id="svg_25">
</g><g class="" id="svg_27">
</g><g class="" id="svg_29">
</g><g class="" id="svg_31">
</g><g class="" id="svg_33">
</g><g class="" id="svg_35">
</g><g class="" id="svg_37">
</g><g class="" id="svg_39">
</g><g class="" id="svg_41">
</g><g class="" id="svg_43">
</g><g class="" id="svg_45">
</g><g class="" id="svg_47">
</g><g class="" id="svg_49">
</g><g class="" id="svg_51">
</g><g class="" id="svg_53">
</g><g id="svg_6" class="">
</g><g id="svg_7" class="">
</g><g id="svg_8" class="">
</g><g id="svg_9" class="">
</g><g id="svg_10" class="">
</g><g id="svg_11" class="">
</g><g id="svg_12" class="">
</g><g id="svg_13" class="">
</g><g id="svg_14" class="">
</g><g id="svg_15" class="">
</g><g id="svg_16" class="">
</g><g id="svg_17" class="">
</g><g id="svg_18" class="">
</g><g id="svg_19" class="">
</g><g id="svg_20" class="">
</g></g></svg>