<?xml version="1.0" encoding="iso-8859-1"?>
<!-- Generator: Adobe Illustrator 19.0.0, SVG Export Plug-In . SVG Version: 6.00 Build 0)  -->
<svg version="1.1" id="Layer_1" xmlns="http://www.w3.org/2000/svg" xmlns:xlink="http://www.w3.org/1999/xlink" x="0px" y="0px"
	 viewBox="0 0 512 512" style="enable-background:new 0 0 512 512;" xml:space="preserve">
<polyline style="fill:#CCCCCC;" points="278.1,349.378 277.341,328.132 343.356,331.167 324.387,357.725 "/>
<rect x="285.495" y="147.192" style="fill:#4D4D4D;" width="10.244" height="51.219"/>
<g>
	<polygon style="fill:#999999;" points="378.621,370.23 231.858,357.356 233.35,340.349 380.113,353.222 392.679,363.796 	"/>
	<path style="fill:#999999;" d="M312.154,201.666l8.321,25.332l-73.486,18.425l24.808-45.76c2.131-3.929,6.241-6.377,10.71-6.377
		h12.096h5.974C305.842,193.286,310.511,196.666,312.154,201.666z"/>
</g>
<g>
	<path style="fill:#666666;" d="M504.761,305.182c4.382,1.855,7.239,6.158,7.239,10.915c0,4.871-2.982,9.254-7.523,11.029
		l-5.698,2.239c-33.237,13.062-69.024,18.332-104.615,15.407l-153.055-12.581l-118.547-9.742c-4.348-0.357-8.708,0.524-12.576,2.542
		l-16.329,8.519c-2.566,1.339-5.462,1.911-8.344,1.649l-26.253-2.387c-5.375-0.488-10.018-3.956-12.015-8.97L7.777,225.155h28.455
		l61.463,69.43l72.387-11.582c8.498-1.36,16.48-4.96,23.123-10.432l48.079-39.593c12.187-10.036,28.108-14.33,43.688-11.783
		l35.504,5.804l70.728,11.553l66.354,47.846l3.748,0.402L504.761,305.182z"/>
	<path style="fill:#666666;" d="M290.62,168.814c-71.514,0-143.585-5.673-214.214-16.862c-2.794-0.443-4.7-3.066-4.257-5.861
		c0.443-2.794,3.074-4.698,5.859-4.258c70.099,11.105,141.633,16.737,212.611,16.737c70.971,0,142.5-5.631,212.6-16.737
		c2.785-0.442,5.418,1.463,5.859,4.258c0.443,2.794-1.463,5.418-4.257,5.861C434.195,163.14,362.126,168.814,290.62,168.814z"/>
</g>
<path style="fill:#333333;" d="M253.629,287.756c0,0,1.802-0.566,4.919-1.208c3.119-0.652,7.553-1.392,12.837-1.912
	c5.284-0.52,11.418-0.84,17.953-0.801c6.536,0.024,13.467,0.427,20.369,1.121c6.9,0.715,13.769,1.731,20.172,3.037
	c3.202,0.65,6.29,1.351,9.208,2.111c2.918,0.752,5.671,1.542,8.204,2.333c2.533,0.804,4.848,1.6,6.893,2.369
	c2.045,0.771,3.823,1.492,5.282,2.136c2.921,1.27,4.568,2.196,4.568,2.196s-1.802,0.57-4.92,1.218
	c-1.559,0.332-3.448,0.676-5.607,1.014c-2.159,0.335-4.588,0.642-7.231,0.912c-2.642,0.257-5.496,0.469-8.508,0.61
	c-3.012,0.149-6.178,0.206-9.445,0.188c-6.534-0.028-13.467-0.435-20.367-1.143c-6.899-0.727-13.768-1.747-20.17-3.058
	c-6.405-1.295-12.345-2.86-17.411-4.447c-5.067-1.587-9.257-3.215-12.176-4.49C255.277,288.677,253.629,287.756,253.629,287.756z"/>
<g>
	<path style="fill:#F2F2F2;" d="M461.305,286.8l-70.052-12.723c-6.476-1.176-10.317-7.921-8.022-14.09l7.972-21.436l30.834,5.042
		c7.876,1.286,14.637,6.317,18.12,13.51l8.628,17.801C451.379,280.256,455.83,284.478,461.305,286.8z"/>
	<path style="fill:#F2F2F2;" d="M461.305,286.8l-34.818-6.328l-8.138-1.48l-27.101-4.917c-6.476-1.172-10.312-7.922-8.013-14.091
		l7.967-21.432l23.766,3.893l7.068,1.15c0.364,0.057,0.717,0.125,1.07,0.205c7.421,1.548,13.727,6.442,17.05,13.306l8.628,17.801
		C451.379,280.256,455.83,284.478,461.305,286.8z"/>
</g>
<g>
	<path style="fill:#999999;" d="M49.701,320.923C22.296,320.923,0,298.627,0,271.222c0-27.406,22.296-49.702,49.701-49.702
		c27.406,0,49.702,22.296,49.702,49.702C99.402,298.627,77.106,320.923,49.701,320.923z M49.701,232.902
		c-21.128,0-38.319,17.19-38.319,38.32s17.19,38.319,38.319,38.319c21.13,0,38.32-17.19,38.32-38.319
		C88.02,250.093,70.83,232.902,49.701,232.902z"/>
	<circle style="fill:#999999;" cx="49.701" cy="271.222" r="8.631"/>
</g>
<path style="fill:#F2F2F2;" d="M356.368,240.801l-42.392-7.18c-7.645-1.295-14.892,3.853-16.186,11.498l0,0
	c-1.295,7.645,3.853,14.892,11.498,16.186l42.392,7.18c7.645,1.295,14.892-3.853,16.186-11.498l0,0
	C369.16,249.343,364.013,242.096,356.368,240.801z"/>
<polygon style="fill:#999999;" points="345.169,319.769 258.037,312.126 258.922,302.029 346.055,309.672 353.516,315.949 "/>
<path style="fill:#666666;" d="M409.448,289.395l-8.138-1.48l13.658-45.471l7.068,1.15c0.364,0.057,0.717,0.125,1.07,0.205
	L409.448,289.395z"/>
<g>
</g>
<g>
</g>
<g>
</g>
<g>
</g>
<g>
</g>
<g>
</g>
<g>
</g>
<g>
</g>
<g>
</g>
<g>
</g>
<g>
</g>
<g>
</g>
<g>
</g>
<g>
</g>
<g>
</g>
</svg>
